<?xml version="1.0" encoding="utf-8"?>
<!-- Generator: Adobe Illustrator 25.2.1, SVG Export Plug-In . SVG Version: 6.00 Build 0)  -->
<svg version="1.1" id="Layer_1"
	xmlns="http://www.w3.org/2000/svg"
	xmlns:xlink="http://www.w3.org/1999/xlink" x="0px" y="0px" viewBox="0 0 342.9 92" style="enable-background:new 0 0 342.9 92;" xml:space="preserve">
	<style type="text/css">
	.st0{fill:#EA4335;}
	.st1{fill:#FBBC05;}
	.st2{fill:#4285F4;}
	.st3{fill:#34A853;}
	</style>
	<path class="st0" d="M186.7,47.2c0,12.8-10,22.2-22.2,22.2s-22.2-9.4-22.2-22.2c0-12.9,10-22.2,22.2-22.2S186.7,34.3,186.7,47.2z
	 M176.9,47.2c0-8-5.8-13.4-12.5-13.4s-12.5,5.5-12.5,13.4c0,7.9,5.8,13.4,12.5,13.4S176.9,55.1,176.9,47.2z"/>
	<path class="st1" d="M234.7,47.2c0,12.8-10,22.2-22.2,22.2s-22.2-9.4-22.2-22.2c0-12.8,10-22.2,22.2-22.2S234.7,34.3,234.7,47.2z
	 M224.9,47.2c0-8-5.8-13.4-12.5-13.4s-12.5,5.5-12.5,13.4c0,7.9,5.8,13.4,12.5,13.4S224.9,55.1,224.9,47.2z"/>
	<path class="st2" d="M280.7,26.3v39.8c0,16.4-9.7,23.1-21.1,23.1c-10.7,0-17.2-7.2-19.7-13.1l8.5-3.5c1.5,3.6,5.2,7.9,11.2,7.9
	c7.3,0,11.8-4.5,11.8-13v-3.2h-0.3c-2.2,2.7-6.4,5-11.7,5c-11.1,0-21.2-9.7-21.2-22.1c0-12.5,10.2-22.3,21.2-22.3
	c5.3,0,9.5,2.4,11.7,5h0.3v-3.6L280.7,26.3L280.7,26.3z M272.1,47.3c0-7.8-5.2-13.5-11.8-13.5c-6.7,0-12.4,5.7-12.4,13.5
	c0,7.7,5.6,13.4,12.4,13.4C266.9,60.6,272.1,55,272.1,47.3z"/>
	<path class="st3" d="M295.9,3v65h-9.5V3H295.9z"/>
	<path class="st0" d="M332.9,54.5l7.6,5c-2.4,3.6-8.3,9.8-18.5,9.8c-12.6,0-22-9.7-22-22.2C300,34,309.5,25,320.9,25
	c11.5,0,17.1,9.2,19,14.1l1,2.5l-29.6,12.3c2.3,4.5,5.8,6.7,10.8,6.7C327,60.6,330.4,58.2,332.9,54.5L332.9,54.5z M309.7,46.5
	l19.8-8.2c-1.1-2.8-4.4-4.7-8.2-4.7C316.3,33.6,309.4,37.9,309.7,46.5z"/>
	<path class="st0" d="M59.5,54.5l7.6,5c-2.4,3.6-8.3,9.8-18.5,9.8c-12.6,0-22-9.7-22-22.2C26.6,34,36.1,25,47.5,25
	c11.5,0,17.1,9.2,19,14.1l1,2.5L37.8,53.9c2.3,4.5,5.8,6.7,10.8,6.7C53.5,60.6,57,58.2,59.5,54.5L59.5,54.5z M36.2,46.5l19.8-8.2
	c-1.1-2.8-4.4-4.7-8.2-4.7C42.9,33.6,36,37.9,36.2,46.5z"/>
	<path class="st2" d="M106.2,41.4V32h31.7c0.3,1.6,0.5,3.6,0.5,5.7c0,7.1-1.9,15.8-8.1,22c-6.1,6.3-13.8,9.7-24,9.7
	c-19,0-34.9-15.5-34.9-34.4s16-34.4,34.9-34.4c10.5,0,18,4.1,23.6,9.5l-6.6,6.6c-4-3.8-9.5-6.7-17-6.7c-13.9,0-24.7,11.2-24.7,25
	s10.8,25,24.7,25c9,0,14.1-3.6,17.4-6.9c2.7-2.7,4.4-6.5,5.1-11.7L106.2,41.4z"/>
	<g>
		<path class="st3" d="M9.3,68.5H0v-43h9.3V29c3.2-2.6,7.2-4.3,11.9-4.2l3.4,0.1v9.3h-3.9c-6.8,0-11.4,7.1-11.4,13.8V68.5z"/>
	</g>
</svg>
